<mxfile host="app.diagrams.net" modified="2020-12-17T12:53:26.462Z" agent="5.0 (Macintosh; Intel Mac OS X 10_15_6) AppleWebKit/605.1.15 (KHTML, like Gecko) Version/14.0.2 Safari/605.1.15" etag="DU22Udm5X_GCi9AukrOR" version="14.0.4" type="github">
  <diagram id="C5RBs43oDa-KdzZeNtuy" name="Page-1">
    <mxGraphModel dx="2125" dy="718" grid="1" gridSize="10" guides="1" tooltips="1" connect="1" arrows="1" fold="1" page="1" pageScale="1" pageWidth="827" pageHeight="1169" math="0" shadow="0">
      <root>
        <mxCell id="WIyWlLk6GJQsqaUBKTNV-0" />
        <mxCell id="WIyWlLk6GJQsqaUBKTNV-1" parent="WIyWlLk6GJQsqaUBKTNV-0" />
        <mxCell id="Xisnlb-HELQepVtMhwzp-12" value="" style="edgeStyle=orthogonalEdgeStyle;rounded=0;orthogonalLoop=1;jettySize=auto;html=1;" parent="WIyWlLk6GJQsqaUBKTNV-1" source="Xisnlb-HELQepVtMhwzp-0" target="Xisnlb-HELQepVtMhwzp-3" edge="1">
          <mxGeometry relative="1" as="geometry" />
        </mxCell>
        <mxCell id="Xisnlb-HELQepVtMhwzp-0" value="Camera1" style="whiteSpace=wrap;html=1;" parent="WIyWlLk6GJQsqaUBKTNV-1" vertex="1">
          <mxGeometry x="110" y="50" width="70" height="30" as="geometry" />
        </mxCell>
        <mxCell id="Xisnlb-HELQepVtMhwzp-10" value="" style="edgeStyle=orthogonalEdgeStyle;rounded=0;orthogonalLoop=1;jettySize=auto;html=1;" parent="WIyWlLk6GJQsqaUBKTNV-1" source="Xisnlb-HELQepVtMhwzp-2" target="Xisnlb-HELQepVtMhwzp-4" edge="1">
          <mxGeometry relative="1" as="geometry" />
        </mxCell>
        <mxCell id="Xisnlb-HELQepVtMhwzp-2" value="Camera2" style="whiteSpace=wrap;html=1;" parent="WIyWlLk6GJQsqaUBKTNV-1" vertex="1">
          <mxGeometry x="220" y="50" width="70" height="30" as="geometry" />
        </mxCell>
        <mxCell id="Xisnlb-HELQepVtMhwzp-14" value="" style="edgeStyle=orthogonalEdgeStyle;rounded=0;orthogonalLoop=1;jettySize=auto;html=1;" parent="WIyWlLk6GJQsqaUBKTNV-1" source="Xisnlb-HELQepVtMhwzp-3" target="Xisnlb-HELQepVtMhwzp-13" edge="1">
          <mxGeometry relative="1" as="geometry" />
        </mxCell>
        <mxCell id="Xisnlb-HELQepVtMhwzp-3" value="YUV" style="whiteSpace=wrap;html=1;" parent="WIyWlLk6GJQsqaUBKTNV-1" vertex="1">
          <mxGeometry x="110" y="110" width="70" height="30" as="geometry" />
        </mxCell>
        <mxCell id="Xisnlb-HELQepVtMhwzp-4" value="Texture" style="whiteSpace=wrap;html=1;" parent="WIyWlLk6GJQsqaUBKTNV-1" vertex="1">
          <mxGeometry x="220" y="110" width="70" height="30" as="geometry" />
        </mxCell>
        <mxCell id="Xisnlb-HELQepVtMhwzp-13" value="Texture" style="whiteSpace=wrap;html=1;" parent="WIyWlLk6GJQsqaUBKTNV-1" vertex="1">
          <mxGeometry x="110" y="170" width="70" height="30" as="geometry" />
        </mxCell>
        <mxCell id="Xisnlb-HELQepVtMhwzp-26" value="" style="edgeStyle=orthogonalEdgeStyle;rounded=0;orthogonalLoop=1;jettySize=auto;html=1;" parent="WIyWlLk6GJQsqaUBKTNV-1" source="Xisnlb-HELQepVtMhwzp-15" target="Xisnlb-HELQepVtMhwzp-24" edge="1">
          <mxGeometry relative="1" as="geometry" />
        </mxCell>
        <mxCell id="Xisnlb-HELQepVtMhwzp-15" value="CPU Convert" style="whiteSpace=wrap;html=1;" parent="WIyWlLk6GJQsqaUBKTNV-1" vertex="1">
          <mxGeometry x="110" y="310" width="70" height="40" as="geometry" />
        </mxCell>
        <mxCell id="Xisnlb-HELQepVtMhwzp-27" value="" style="edgeStyle=orthogonalEdgeStyle;rounded=0;orthogonalLoop=1;jettySize=auto;html=1;" parent="WIyWlLk6GJQsqaUBKTNV-1" source="Xisnlb-HELQepVtMhwzp-16" target="Xisnlb-HELQepVtMhwzp-25" edge="1">
          <mxGeometry relative="1" as="geometry" />
        </mxCell>
        <mxCell id="Xisnlb-HELQepVtMhwzp-16" value="GPU Convert" style="whiteSpace=wrap;html=1;" parent="WIyWlLk6GJQsqaUBKTNV-1" vertex="1">
          <mxGeometry x="230" y="310" width="70" height="40" as="geometry" />
        </mxCell>
        <mxCell id="Xisnlb-HELQepVtMhwzp-22" value="" style="endArrow=classic;html=1;exitX=0.5;exitY=1;exitDx=0;exitDy=0;" parent="WIyWlLk6GJQsqaUBKTNV-1" source="Xisnlb-HELQepVtMhwzp-13" edge="1">
          <mxGeometry width="50" height="50" relative="1" as="geometry">
            <mxPoint x="380" y="390" as="sourcePoint" />
            <mxPoint x="250" y="300" as="targetPoint" />
          </mxGeometry>
        </mxCell>
        <mxCell id="m7NCk7pb2bIgd23CFCai-6" value="GL 3.1及以上" style="edgeLabel;html=1;align=center;verticalAlign=middle;resizable=0;points=[];" vertex="1" connectable="0" parent="Xisnlb-HELQepVtMhwzp-22">
          <mxGeometry x="-0.2095" y="1" relative="1" as="geometry">
            <mxPoint as="offset" />
          </mxGeometry>
        </mxCell>
        <mxCell id="Xisnlb-HELQepVtMhwzp-23" value="" style="endArrow=classic;html=1;exitX=0.5;exitY=1;exitDx=0;exitDy=0;" parent="WIyWlLk6GJQsqaUBKTNV-1" source="Xisnlb-HELQepVtMhwzp-4" edge="1">
          <mxGeometry width="50" height="50" relative="1" as="geometry">
            <mxPoint x="380" y="390" as="sourcePoint" />
            <mxPoint x="255" y="300" as="targetPoint" />
          </mxGeometry>
        </mxCell>
        <mxCell id="Xisnlb-HELQepVtMhwzp-28" value="GL 3.1及以上" style="edgeLabel;html=1;align=center;verticalAlign=middle;resizable=0;points=[];" parent="Xisnlb-HELQepVtMhwzp-23" vertex="1" connectable="0">
          <mxGeometry x="-0.2" y="3" relative="1" as="geometry">
            <mxPoint as="offset" />
          </mxGeometry>
        </mxCell>
        <mxCell id="Xisnlb-HELQepVtMhwzp-24" value="Buffer" style="whiteSpace=wrap;html=1;" parent="WIyWlLk6GJQsqaUBKTNV-1" vertex="1">
          <mxGeometry x="110" y="380" width="70" height="30" as="geometry" />
        </mxCell>
        <mxCell id="Xisnlb-HELQepVtMhwzp-25" value="GLBuffer" style="whiteSpace=wrap;html=1;" parent="WIyWlLk6GJQsqaUBKTNV-1" vertex="1">
          <mxGeometry x="230" y="380" width="70" height="30" as="geometry" />
        </mxCell>
        <mxCell id="Xisnlb-HELQepVtMhwzp-31" value="" style="edgeStyle=elbowEdgeStyle;elbow=horizontal;endArrow=classic;html=1;entryX=0;entryY=0.5;entryDx=0;entryDy=0;exitX=0;exitY=0.5;exitDx=0;exitDy=0;" parent="WIyWlLk6GJQsqaUBKTNV-1" source="Xisnlb-HELQepVtMhwzp-0" target="Xisnlb-HELQepVtMhwzp-13" edge="1">
          <mxGeometry width="50" height="50" relative="1" as="geometry">
            <mxPoint x="100" y="65" as="sourcePoint" />
            <mxPoint x="430" y="340" as="targetPoint" />
            <Array as="points">
              <mxPoint x="80" y="125" />
            </Array>
          </mxGeometry>
        </mxCell>
        <mxCell id="Xisnlb-HELQepVtMhwzp-32" value="Padding, Scale, Rotate" style="shape=callout;whiteSpace=wrap;html=1;perimeter=calloutPerimeter;rotation=45;size=100;position=0.85;base=31;" parent="WIyWlLk6GJQsqaUBKTNV-1" vertex="1">
          <mxGeometry x="360" y="57.27000000000001" width="145" height="135.45" as="geometry" />
        </mxCell>
        <mxCell id="Xisnlb-HELQepVtMhwzp-34" value="Open GL Delegate" style="whiteSpace=wrap;html=1;" parent="WIyWlLk6GJQsqaUBKTNV-1" vertex="1">
          <mxGeometry x="230" y="450" width="70" height="30" as="geometry" />
        </mxCell>
        <mxCell id="m7NCk7pb2bIgd23CFCai-3" value="" style="edgeStyle=orthogonalEdgeStyle;rounded=0;orthogonalLoop=1;jettySize=auto;html=1;" edge="1" parent="WIyWlLk6GJQsqaUBKTNV-1" source="m7NCk7pb2bIgd23CFCai-1" target="m7NCk7pb2bIgd23CFCai-2">
          <mxGeometry relative="1" as="geometry" />
        </mxCell>
        <mxCell id="m7NCk7pb2bIgd23CFCai-1" value="Camera" style="whiteSpace=wrap;html=1;" vertex="1" parent="WIyWlLk6GJQsqaUBKTNV-1">
          <mxGeometry x="580" y="60" width="70" height="30" as="geometry" />
        </mxCell>
        <mxCell id="m7NCk7pb2bIgd23CFCai-2" value="GLTexture" style="whiteSpace=wrap;html=1;" vertex="1" parent="WIyWlLk6GJQsqaUBKTNV-1">
          <mxGeometry x="580" y="120" width="70" height="30" as="geometry" />
        </mxCell>
        <mxCell id="m7NCk7pb2bIgd23CFCai-5" value="GLTexture" style="whiteSpace=wrap;html=1;" vertex="1" parent="WIyWlLk6GJQsqaUBKTNV-1">
          <mxGeometry x="580" y="180" width="70" height="30" as="geometry" />
        </mxCell>
        <mxCell id="m7NCk7pb2bIgd23CFCai-8" value="Open CL Delegate" style="whiteSpace=wrap;html=1;" vertex="1" parent="WIyWlLk6GJQsqaUBKTNV-1">
          <mxGeometry x="320" y="450" width="70" height="30" as="geometry" />
        </mxCell>
        <mxCell id="m7NCk7pb2bIgd23CFCai-10" value="Inputs" style="whiteSpace=wrap;html=1;" vertex="1" parent="WIyWlLk6GJQsqaUBKTNV-1">
          <mxGeometry x="110" y="440" width="70" height="30" as="geometry" />
        </mxCell>
        <mxCell id="m7NCk7pb2bIgd23CFCai-11" value="Invoke" style="whiteSpace=wrap;html=1;" vertex="1" parent="WIyWlLk6GJQsqaUBKTNV-1">
          <mxGeometry x="20" y="440" width="70" height="30" as="geometry" />
        </mxCell>
        <mxCell id="m7NCk7pb2bIgd23CFCai-15" value="Outputs" style="whiteSpace=wrap;html=1;" vertex="1" parent="WIyWlLk6GJQsqaUBKTNV-1">
          <mxGeometry x="-70" y="440" width="70" height="30" as="geometry" />
        </mxCell>
        <mxCell id="m7NCk7pb2bIgd23CFCai-17" value="" style="endArrow=classic;html=1;exitX=0.5;exitY=1;exitDx=0;exitDy=0;entryX=0.5;entryY=0;entryDx=0;entryDy=0;" edge="1" parent="WIyWlLk6GJQsqaUBKTNV-1" source="Xisnlb-HELQepVtMhwzp-25" target="Xisnlb-HELQepVtMhwzp-34">
          <mxGeometry width="50" height="50" relative="1" as="geometry">
            <mxPoint x="390" y="410" as="sourcePoint" />
            <mxPoint x="440" y="360" as="targetPoint" />
          </mxGeometry>
        </mxCell>
        <mxCell id="m7NCk7pb2bIgd23CFCai-19" value="" style="edgeStyle=segmentEdgeStyle;endArrow=classic;html=1;exitX=1;exitY=0.5;exitDx=0;exitDy=0;entryX=0.5;entryY=0;entryDx=0;entryDy=0;" edge="1" parent="WIyWlLk6GJQsqaUBKTNV-1" source="Xisnlb-HELQepVtMhwzp-25" target="m7NCk7pb2bIgd23CFCai-8">
          <mxGeometry width="50" height="50" relative="1" as="geometry">
            <mxPoint x="390" y="410" as="sourcePoint" />
            <mxPoint x="440" y="360" as="targetPoint" />
          </mxGeometry>
        </mxCell>
        <mxCell id="m7NCk7pb2bIgd23CFCai-21" value="" style="endArrow=classic;html=1;exitX=0.5;exitY=1;exitDx=0;exitDy=0;" edge="1" parent="WIyWlLk6GJQsqaUBKTNV-1" source="Xisnlb-HELQepVtMhwzp-34" target="m7NCk7pb2bIgd23CFCai-23">
          <mxGeometry width="50" height="50" relative="1" as="geometry">
            <mxPoint x="390" y="410" as="sourcePoint" />
            <mxPoint x="440" y="360" as="targetPoint" />
          </mxGeometry>
        </mxCell>
        <mxCell id="m7NCk7pb2bIgd23CFCai-23" value="GLBuffer" style="whiteSpace=wrap;html=1;" vertex="1" parent="WIyWlLk6GJQsqaUBKTNV-1">
          <mxGeometry x="250" y="520" width="70" height="30" as="geometry" />
        </mxCell>
        <mxCell id="m7NCk7pb2bIgd23CFCai-24" value="" style="edgeStyle=segmentEdgeStyle;endArrow=classic;html=1;exitX=0.5;exitY=1;exitDx=0;exitDy=0;entryX=1;entryY=0.25;entryDx=0;entryDy=0;" edge="1" parent="WIyWlLk6GJQsqaUBKTNV-1" source="m7NCk7pb2bIgd23CFCai-8" target="m7NCk7pb2bIgd23CFCai-23">
          <mxGeometry width="50" height="50" relative="1" as="geometry">
            <mxPoint x="355" y="530" as="sourcePoint" />
            <mxPoint x="180" y="635" as="targetPoint" />
            <Array as="points">
              <mxPoint x="355" y="528" />
              <mxPoint x="340" y="528" />
            </Array>
          </mxGeometry>
        </mxCell>
        <mxCell id="m7NCk7pb2bIgd23CFCai-29" value="" style="endArrow=classic;html=1;exitX=0.5;exitY=1;exitDx=0;exitDy=0;" edge="1" parent="WIyWlLk6GJQsqaUBKTNV-1" source="Xisnlb-HELQepVtMhwzp-24" target="m7NCk7pb2bIgd23CFCai-10">
          <mxGeometry width="50" height="50" relative="1" as="geometry">
            <mxPoint x="390" y="410" as="sourcePoint" />
            <mxPoint x="440" y="360" as="targetPoint" />
          </mxGeometry>
        </mxCell>
        <mxCell id="m7NCk7pb2bIgd23CFCai-32" value="" style="endArrow=classic;html=1;exitX=0;exitY=0.5;exitDx=0;exitDy=0;" edge="1" parent="WIyWlLk6GJQsqaUBKTNV-1" source="m7NCk7pb2bIgd23CFCai-10" target="m7NCk7pb2bIgd23CFCai-11">
          <mxGeometry width="50" height="50" relative="1" as="geometry">
            <mxPoint x="390" y="410" as="sourcePoint" />
            <mxPoint x="440" y="360" as="targetPoint" />
          </mxGeometry>
        </mxCell>
        <mxCell id="m7NCk7pb2bIgd23CFCai-33" value="" style="endArrow=classic;html=1;exitX=0;exitY=0.5;exitDx=0;exitDy=0;entryX=1;entryY=0.5;entryDx=0;entryDy=0;" edge="1" parent="WIyWlLk6GJQsqaUBKTNV-1" source="m7NCk7pb2bIgd23CFCai-11" target="m7NCk7pb2bIgd23CFCai-15">
          <mxGeometry width="50" height="50" relative="1" as="geometry">
            <mxPoint x="390" y="410" as="sourcePoint" />
            <mxPoint x="440" y="360" as="targetPoint" />
          </mxGeometry>
        </mxCell>
      </root>
    </mxGraphModel>
  </diagram>
</mxfile>
